<mxfile host="app.diagrams.net" agent="Mozilla/5.0 (Windows NT 10.0; Win64; x64) AppleWebKit/537.36 (KHTML, like Gecko) Chrome/127.0.0.0 Safari/537.36" version="24.7.6">
  <diagram name="Page-1" id="AuQpmxfqLs3FfPnLXNmp">
    <mxGraphModel dx="819" dy="426" grid="0" gridSize="10" guides="1" tooltips="1" connect="1" arrows="1" fold="1" page="0" pageScale="1" pageWidth="850" pageHeight="1100" math="0" shadow="0">
      <root>
        <mxCell id="0" />
        <mxCell id="1" parent="0" />
        <mxCell id="e3bJ0FZlxTrYru2R8J3a-2" value="d=0&lt;div&gt;v0&lt;/div&gt;" style="ellipse;whiteSpace=wrap;html=1;" vertex="1" parent="1">
          <mxGeometry x="190" y="280" width="60" height="40" as="geometry" />
        </mxCell>
        <mxCell id="e3bJ0FZlxTrYru2R8J3a-5" value="True&lt;div&gt;4 samps&lt;/div&gt;" style="whiteSpace=wrap;html=1;aspect=fixed;" vertex="1" parent="1">
          <mxGeometry x="280" y="360" width="40" height="40" as="geometry" />
        </mxCell>
        <mxCell id="e3bJ0FZlxTrYru2R8J3a-6" value="d=1&lt;div&gt;v1&lt;/div&gt;" style="ellipse;whiteSpace=wrap;html=1;" vertex="1" parent="1">
          <mxGeometry x="110" y="360" width="60" height="40" as="geometry" />
        </mxCell>
        <mxCell id="e3bJ0FZlxTrYru2R8J3a-7" value="False&lt;div&gt;5 samps&lt;/div&gt;" style="whiteSpace=wrap;html=1;aspect=fixed;" vertex="1" parent="1">
          <mxGeometry x="200" y="440" width="40" height="40" as="geometry" />
        </mxCell>
        <mxCell id="e3bJ0FZlxTrYru2R8J3a-8" value="True&lt;div&gt;4 samps&lt;/div&gt;" style="whiteSpace=wrap;html=1;aspect=fixed;" vertex="1" parent="1">
          <mxGeometry x="40" y="440" width="40" height="40" as="geometry" />
        </mxCell>
        <mxCell id="e3bJ0FZlxTrYru2R8J3a-9" value="" style="endArrow=classic;html=1;rounded=0;exitX=1;exitY=1;exitDx=0;exitDy=0;entryX=0.5;entryY=0;entryDx=0;entryDy=0;" edge="1" parent="1" source="e3bJ0FZlxTrYru2R8J3a-2" target="e3bJ0FZlxTrYru2R8J3a-5">
          <mxGeometry width="50" height="50" relative="1" as="geometry">
            <mxPoint x="170" y="460" as="sourcePoint" />
            <mxPoint x="220" y="410" as="targetPoint" />
          </mxGeometry>
        </mxCell>
        <mxCell id="e3bJ0FZlxTrYru2R8J3a-10" value="" style="endArrow=classic;html=1;rounded=0;exitX=0;exitY=1;exitDx=0;exitDy=0;entryX=0.5;entryY=0;entryDx=0;entryDy=0;" edge="1" parent="1" source="e3bJ0FZlxTrYru2R8J3a-2" target="e3bJ0FZlxTrYru2R8J3a-6">
          <mxGeometry width="50" height="50" relative="1" as="geometry">
            <mxPoint x="251" y="324" as="sourcePoint" />
            <mxPoint x="310" y="410" as="targetPoint" />
          </mxGeometry>
        </mxCell>
        <mxCell id="e3bJ0FZlxTrYru2R8J3a-11" value="" style="endArrow=classic;html=1;rounded=0;exitX=0;exitY=1;exitDx=0;exitDy=0;entryX=0.5;entryY=0;entryDx=0;entryDy=0;" edge="1" parent="1" source="e3bJ0FZlxTrYru2R8J3a-6" target="e3bJ0FZlxTrYru2R8J3a-8">
          <mxGeometry width="50" height="50" relative="1" as="geometry">
            <mxPoint x="99" y="380" as="sourcePoint" />
            <mxPoint x="40" y="466" as="targetPoint" />
          </mxGeometry>
        </mxCell>
        <mxCell id="e3bJ0FZlxTrYru2R8J3a-12" value="" style="endArrow=classic;html=1;rounded=0;exitX=1;exitY=1;exitDx=0;exitDy=0;entryX=0.5;entryY=0;entryDx=0;entryDy=0;" edge="1" parent="1" source="e3bJ0FZlxTrYru2R8J3a-6" target="e3bJ0FZlxTrYru2R8J3a-7">
          <mxGeometry width="50" height="50" relative="1" as="geometry">
            <mxPoint x="219" y="294" as="sourcePoint" />
            <mxPoint x="160" y="380" as="targetPoint" />
          </mxGeometry>
        </mxCell>
        <mxCell id="e3bJ0FZlxTrYru2R8J3a-14" value="&lt;b&gt;&lt;u&gt;T :&lt;/u&gt;&lt;/b&gt;" style="text;html=1;align=center;verticalAlign=middle;resizable=0;points=[];autosize=1;strokeColor=none;fillColor=none;" vertex="1" parent="1">
          <mxGeometry x="160" y="250" width="40" height="30" as="geometry" />
        </mxCell>
        <mxCell id="e3bJ0FZlxTrYru2R8J3a-15" value="&lt;b&gt;&lt;u&gt;T&#39;:&lt;/u&gt;&lt;/b&gt;" style="text;html=1;align=center;verticalAlign=middle;resizable=0;points=[];autosize=1;strokeColor=none;fillColor=none;" vertex="1" parent="1">
          <mxGeometry x="440" y="250" width="40" height="30" as="geometry" />
        </mxCell>
        <mxCell id="e3bJ0FZlxTrYru2R8J3a-16" value="d=0&lt;div&gt;v0&lt;/div&gt;" style="ellipse;whiteSpace=wrap;html=1;" vertex="1" parent="1">
          <mxGeometry x="470" y="280" width="60" height="40" as="geometry" />
        </mxCell>
        <mxCell id="e3bJ0FZlxTrYru2R8J3a-17" value="True&lt;div&gt;4 samps&lt;/div&gt;" style="whiteSpace=wrap;html=1;aspect=fixed;" vertex="1" parent="1">
          <mxGeometry x="560" y="360" width="40" height="40" as="geometry" />
        </mxCell>
        <mxCell id="e3bJ0FZlxTrYru2R8J3a-20" value="&lt;div&gt;False&lt;/div&gt;&lt;div&gt;5 samps&lt;/div&gt;" style="whiteSpace=wrap;html=1;aspect=fixed;" vertex="1" parent="1">
          <mxGeometry x="400" y="360" width="40" height="40" as="geometry" />
        </mxCell>
        <mxCell id="e3bJ0FZlxTrYru2R8J3a-21" value="" style="endArrow=classic;html=1;rounded=0;exitX=1;exitY=1;exitDx=0;exitDy=0;entryX=0.5;entryY=0;entryDx=0;entryDy=0;" edge="1" parent="1" source="e3bJ0FZlxTrYru2R8J3a-16" target="e3bJ0FZlxTrYru2R8J3a-17">
          <mxGeometry width="50" height="50" relative="1" as="geometry">
            <mxPoint x="450" y="460" as="sourcePoint" />
            <mxPoint x="500" y="410" as="targetPoint" />
          </mxGeometry>
        </mxCell>
        <mxCell id="e3bJ0FZlxTrYru2R8J3a-22" value="" style="endArrow=classic;html=1;rounded=0;exitX=0;exitY=1;exitDx=0;exitDy=0;entryX=0.5;entryY=0;entryDx=0;entryDy=0;" edge="1" parent="1" source="e3bJ0FZlxTrYru2R8J3a-16" target="e3bJ0FZlxTrYru2R8J3a-20">
          <mxGeometry width="50" height="50" relative="1" as="geometry">
            <mxPoint x="531" y="324" as="sourcePoint" />
            <mxPoint x="420" y="360" as="targetPoint" />
          </mxGeometry>
        </mxCell>
      </root>
    </mxGraphModel>
  </diagram>
</mxfile>
